<mxfile host="app.diagrams.net" modified="2023-08-17T02:13:47.331Z" agent="Mozilla/5.0 (Windows NT 10.0; Win64; x64) AppleWebKit/537.36 (KHTML, like Gecko) Chrome/115.0.0.0 Safari/537.36" etag="6K1cnEJ21wD-nN7c7jWp" version="21.6.8" type="device">
  <diagram name="PÃ¡gina-1" id="FEs7WCxhOsXftO1ytCgk">
    <mxGraphModel dx="1050" dy="542" grid="1" gridSize="10" guides="1" tooltips="1" connect="1" arrows="1" fold="1" page="1" pageScale="1" pageWidth="827" pageHeight="1169" math="0" shadow="0">
      <root>
        <mxCell id="0" />
        <mxCell id="1" parent="0" />
        <mxCell id="ysF1GJHuXJe3zGCivZhf-1" value="Match" style="rounded=0;whiteSpace=wrap;html=1;fontSize=16;" parent="1" vertex="1">
          <mxGeometry x="440" y="420" width="90" height="100" as="geometry" />
        </mxCell>
        <mxCell id="ysF1GJHuXJe3zGCivZhf-2" value="Player" style="rounded=0;whiteSpace=wrap;html=1;fontSize=16;" parent="1" vertex="1">
          <mxGeometry x="140" y="420" width="90" height="100" as="geometry" />
        </mxCell>
        <mxCell id="ysF1GJHuXJe3zGCivZhf-9" value="" style="endArrow=none;html=1;rounded=0;" parent="1" source="ysF1GJHuXJe3zGCivZhf-2" target="ysF1GJHuXJe3zGCivZhf-10" edge="1">
          <mxGeometry width="50" height="50" relative="1" as="geometry">
            <mxPoint x="360" y="340" as="sourcePoint" />
            <mxPoint x="410" y="290" as="targetPoint" />
          </mxGeometry>
        </mxCell>
        <mxCell id="ysF1GJHuXJe3zGCivZhf-10" value="id" style="ellipse;whiteSpace=wrap;html=1;fontStyle=4" parent="1" vertex="1">
          <mxGeometry x="80" y="400" width="60" height="30" as="geometry" />
        </mxCell>
        <mxCell id="ysF1GJHuXJe3zGCivZhf-11" value="" style="endArrow=none;html=1;rounded=0;" parent="1" source="ysF1GJHuXJe3zGCivZhf-1" target="ysF1GJHuXJe3zGCivZhf-12" edge="1">
          <mxGeometry width="50" height="50" relative="1" as="geometry">
            <mxPoint x="530" y="438" as="sourcePoint" />
            <mxPoint x="410" y="570" as="targetPoint" />
          </mxGeometry>
        </mxCell>
        <mxCell id="ysF1GJHuXJe3zGCivZhf-12" value="id" style="ellipse;whiteSpace=wrap;html=1;fontStyle=4" parent="1" vertex="1">
          <mxGeometry x="535" y="410" width="50" height="30" as="geometry" />
        </mxCell>
        <mxCell id="ysF1GJHuXJe3zGCivZhf-26" value="" style="rhombus;whiteSpace=wrap;html=1;" parent="1" vertex="1">
          <mxGeometry x="197" y="245" width="40" height="40" as="geometry" />
        </mxCell>
        <mxCell id="ysF1GJHuXJe3zGCivZhf-29" value="" style="endArrow=none;html=1;rounded=0;entryX=0.5;entryY=1;entryDx=0;entryDy=0;" parent="1" target="ysF1GJHuXJe3zGCivZhf-26" edge="1">
          <mxGeometry width="50" height="50" relative="1" as="geometry">
            <mxPoint x="185" y="420" as="sourcePoint" />
            <mxPoint x="190" y="180" as="targetPoint" />
          </mxGeometry>
        </mxCell>
        <mxCell id="ysF1GJHuXJe3zGCivZhf-35" value="Team" style="rhombus;whiteSpace=wrap;html=1;" parent="1" vertex="1">
          <mxGeometry x="318.25" y="455" width="51.5" height="30" as="geometry" />
        </mxCell>
        <mxCell id="ysF1GJHuXJe3zGCivZhf-36" value="" style="endArrow=none;html=1;rounded=0;entryX=0;entryY=0.5;entryDx=0;entryDy=0;" parent="1" source="ysF1GJHuXJe3zGCivZhf-2" target="ysF1GJHuXJe3zGCivZhf-35" edge="1">
          <mxGeometry width="50" height="50" relative="1" as="geometry">
            <mxPoint x="190" y="570" as="sourcePoint" />
            <mxPoint x="260" y="433" as="targetPoint" />
          </mxGeometry>
        </mxCell>
        <mxCell id="ysF1GJHuXJe3zGCivZhf-40" value="" style="endArrow=none;html=1;rounded=0;" parent="1" source="ysF1GJHuXJe3zGCivZhf-35" target="ysF1GJHuXJe3zGCivZhf-41" edge="1">
          <mxGeometry width="50" height="50" relative="1" as="geometry">
            <mxPoint x="325.2757763233193" y="370" as="sourcePoint" />
            <mxPoint x="580" y="540" as="targetPoint" />
          </mxGeometry>
        </mxCell>
        <mxCell id="ysF1GJHuXJe3zGCivZhf-41" value="color" style="ellipse;whiteSpace=wrap;html=1;" parent="1" vertex="1">
          <mxGeometry x="285" y="410" width="50" height="30" as="geometry" />
        </mxCell>
        <mxCell id="ysF1GJHuXJe3zGCivZhf-42" value="" style="endArrow=none;html=1;rounded=0;" parent="1" source="ysF1GJHuXJe3zGCivZhf-35" target="ysF1GJHuXJe3zGCivZhf-43" edge="1">
          <mxGeometry width="50" height="50" relative="1" as="geometry">
            <mxPoint x="376.15746161701827" y="370" as="sourcePoint" />
            <mxPoint x="710" y="548" as="targetPoint" />
          </mxGeometry>
        </mxCell>
        <mxCell id="ysF1GJHuXJe3zGCivZhf-43" value="score" style="ellipse;whiteSpace=wrap;html=1;" parent="1" vertex="1">
          <mxGeometry x="347.75" y="410" width="50" height="30" as="geometry" />
        </mxCell>
        <mxCell id="ysF1GJHuXJe3zGCivZhf-45" value="" style="endArrow=none;html=1;rounded=0;" parent="1" source="ysF1GJHuXJe3zGCivZhf-86" target="ysF1GJHuXJe3zGCivZhf-46" edge="1">
          <mxGeometry width="50" height="50" relative="1" as="geometry">
            <mxPoint x="457" y="146" as="sourcePoint" />
            <mxPoint x="417" y="386" as="targetPoint" />
          </mxGeometry>
        </mxCell>
        <mxCell id="ysF1GJHuXJe3zGCivZhf-46" value="id" style="ellipse;whiteSpace=wrap;html=1;fontStyle=4" parent="1" vertex="1">
          <mxGeometry x="450.75" y="96" width="50" height="30" as="geometry" />
        </mxCell>
        <mxCell id="ysF1GJHuXJe3zGCivZhf-47" value="" style="endArrow=none;html=1;rounded=0;shape=link;exitX=0.5;exitY=0;exitDx=0;exitDy=0;entryX=0.5;entryY=1;entryDx=0;entryDy=0;" parent="1" source="ysF1GJHuXJe3zGCivZhf-48" target="ysF1GJHuXJe3zGCivZhf-49" edge="1">
          <mxGeometry width="50" height="50" relative="1" as="geometry">
            <mxPoint x="485" y="580" as="sourcePoint" />
            <mxPoint x="490" y="610" as="targetPoint" />
          </mxGeometry>
        </mxCell>
        <mxCell id="ysF1GJHuXJe3zGCivZhf-48" value="Comment" style="rounded=0;whiteSpace=wrap;html=1;fontSize=16;" parent="1" vertex="1">
          <mxGeometry x="440" y="620" width="90" height="100" as="geometry" />
        </mxCell>
        <mxCell id="ysF1GJHuXJe3zGCivZhf-49" value="" style="rhombus;whiteSpace=wrap;html=1;" parent="1" vertex="1">
          <mxGeometry x="466.25" y="550" width="37.5" height="40" as="geometry" />
        </mxCell>
        <mxCell id="ysF1GJHuXJe3zGCivZhf-50" value="" style="endArrow=none;html=1;rounded=0;entryX=0.5;entryY=0;entryDx=0;entryDy=0;exitX=0.5;exitY=1;exitDx=0;exitDy=0;" parent="1" source="ysF1GJHuXJe3zGCivZhf-1" target="ysF1GJHuXJe3zGCivZhf-49" edge="1">
          <mxGeometry width="50" height="50" relative="1" as="geometry">
            <mxPoint x="495" y="530" as="sourcePoint" />
            <mxPoint x="415" y="580" as="targetPoint" />
          </mxGeometry>
        </mxCell>
        <mxCell id="ysF1GJHuXJe3zGCivZhf-51" value="" style="endArrow=none;html=1;rounded=0;" parent="1" source="ysF1GJHuXJe3zGCivZhf-48" target="ysF1GJHuXJe3zGCivZhf-52" edge="1">
          <mxGeometry width="50" height="50" relative="1" as="geometry">
            <mxPoint x="550" y="643" as="sourcePoint" />
            <mxPoint x="430" y="760" as="targetPoint" />
          </mxGeometry>
        </mxCell>
        <mxCell id="ysF1GJHuXJe3zGCivZhf-52" value="id" style="ellipse;whiteSpace=wrap;html=1;fontStyle=4" parent="1" vertex="1">
          <mxGeometry x="542" y="610" width="50" height="30" as="geometry" />
        </mxCell>
        <mxCell id="ysF1GJHuXJe3zGCivZhf-55" value="" style="endArrow=none;html=1;rounded=0;" parent="1" source="ysF1GJHuXJe3zGCivZhf-86" target="ysF1GJHuXJe3zGCivZhf-56" edge="1">
          <mxGeometry width="50" height="50" relative="1" as="geometry">
            <mxPoint x="270" y="370" as="sourcePoint" />
            <mxPoint x="542" y="286" as="targetPoint" />
          </mxGeometry>
        </mxCell>
        <mxCell id="ysF1GJHuXJe3zGCivZhf-56" value="name" style="ellipse;whiteSpace=wrap;html=1;" parent="1" vertex="1">
          <mxGeometry x="277" y="96" width="50" height="30" as="geometry" />
        </mxCell>
        <mxCell id="ysF1GJHuXJe3zGCivZhf-60" value="N" style="text;html=1;strokeColor=none;fillColor=none;align=center;verticalAlign=middle;whiteSpace=wrap;rounded=0;" parent="1" vertex="1">
          <mxGeometry x="365" y="450" width="20" height="20" as="geometry" />
        </mxCell>
        <mxCell id="ysF1GJHuXJe3zGCivZhf-62" value="1" style="text;html=1;strokeColor=none;fillColor=none;align=center;verticalAlign=middle;whiteSpace=wrap;rounded=0;" parent="1" vertex="1">
          <mxGeometry x="247" y="305" width="20" height="20" as="geometry" />
        </mxCell>
        <mxCell id="ysF1GJHuXJe3zGCivZhf-64" value="N" style="text;html=1;strokeColor=none;fillColor=none;align=center;verticalAlign=middle;whiteSpace=wrap;rounded=0;" parent="1" vertex="1">
          <mxGeometry x="490" y="590" width="20" height="20" as="geometry" />
        </mxCell>
        <mxCell id="ysF1GJHuXJe3zGCivZhf-65" value="1" style="text;html=1;strokeColor=none;fillColor=none;align=center;verticalAlign=middle;whiteSpace=wrap;rounded=0;" parent="1" vertex="1">
          <mxGeometry x="490" y="540" width="20" height="20" as="geometry" />
        </mxCell>
        <mxCell id="ysF1GJHuXJe3zGCivZhf-66" value="" style="endArrow=none;html=1;rounded=0;" parent="1" target="ysF1GJHuXJe3zGCivZhf-67" edge="1">
          <mxGeometry width="50" height="50" relative="1" as="geometry">
            <mxPoint x="530" y="677.1999999999999" as="sourcePoint" />
            <mxPoint x="440" y="810" as="targetPoint" />
          </mxGeometry>
        </mxCell>
        <mxCell id="ysF1GJHuXJe3zGCivZhf-67" value="author" style="ellipse;whiteSpace=wrap;html=1;" parent="1" vertex="1">
          <mxGeometry x="542" y="655" width="50" height="30" as="geometry" />
        </mxCell>
        <mxCell id="ysF1GJHuXJe3zGCivZhf-68" value="" style="endArrow=none;html=1;rounded=0;" parent="1" source="ysF1GJHuXJe3zGCivZhf-48" target="ysF1GJHuXJe3zGCivZhf-69" edge="1">
          <mxGeometry width="50" height="50" relative="1" as="geometry">
            <mxPoint x="340" y="672.1999999999999" as="sourcePoint" />
            <mxPoint x="428.827637445469" y="644.1362643131085" as="targetPoint" />
          </mxGeometry>
        </mxCell>
        <mxCell id="ysF1GJHuXJe3zGCivZhf-69" value="text" style="ellipse;whiteSpace=wrap;html=1;" parent="1" vertex="1">
          <mxGeometry x="379" y="610" width="50" height="30" as="geometry" />
        </mxCell>
        <mxCell id="ysF1GJHuXJe3zGCivZhf-70" value="" style="endArrow=none;html=1;rounded=0;" parent="1" source="ysF1GJHuXJe3zGCivZhf-2" target="ysF1GJHuXJe3zGCivZhf-71" edge="1">
          <mxGeometry width="50" height="50" relative="1" as="geometry">
            <mxPoint x="135" y="496" as="sourcePoint" />
            <mxPoint x="405" y="340" as="targetPoint" />
          </mxGeometry>
        </mxCell>
        <mxCell id="ysF1GJHuXJe3zGCivZhf-71" value="name" style="ellipse;whiteSpace=wrap;html=1;" parent="1" vertex="1">
          <mxGeometry x="70" y="440" width="60" height="30" as="geometry" />
        </mxCell>
        <mxCell id="ysF1GJHuXJe3zGCivZhf-72" value="" style="endArrow=none;html=1;rounded=0;" parent="1" source="ysF1GJHuXJe3zGCivZhf-2" target="ysF1GJHuXJe3zGCivZhf-73" edge="1">
          <mxGeometry width="50" height="50" relative="1" as="geometry">
            <mxPoint x="140" y="513" as="sourcePoint" />
            <mxPoint x="405" y="380" as="targetPoint" />
          </mxGeometry>
        </mxCell>
        <mxCell id="ysF1GJHuXJe3zGCivZhf-73" value="mmr" style="ellipse;whiteSpace=wrap;html=1;" parent="1" vertex="1">
          <mxGeometry x="70" y="490" width="60" height="30" as="geometry" />
        </mxCell>
        <mxCell id="ysF1GJHuXJe3zGCivZhf-74" value="" style="endArrow=none;html=1;rounded=0;" parent="1" source="ysF1GJHuXJe3zGCivZhf-2" target="ysF1GJHuXJe3zGCivZhf-75" edge="1">
          <mxGeometry width="50" height="50" relative="1" as="geometry">
            <mxPoint x="160" y="558" as="sourcePoint" />
            <mxPoint x="425" y="425" as="targetPoint" />
          </mxGeometry>
        </mxCell>
        <mxCell id="ysF1GJHuXJe3zGCivZhf-75" value="platform" style="ellipse;whiteSpace=wrap;html=1;" parent="1" vertex="1">
          <mxGeometry x="120" y="535" width="60" height="30" as="geometry" />
        </mxCell>
        <mxCell id="ysF1GJHuXJe3zGCivZhf-76" value="timestamp" style="ellipse;whiteSpace=wrap;html=1;" parent="1" vertex="1">
          <mxGeometry x="524" y="555" width="71" height="30" as="geometry" />
        </mxCell>
        <mxCell id="ysF1GJHuXJe3zGCivZhf-77" value="" style="endArrow=none;html=1;rounded=0;" parent="1" source="ysF1GJHuXJe3zGCivZhf-49" target="ysF1GJHuXJe3zGCivZhf-76" edge="1">
          <mxGeometry width="50" height="50" relative="1" as="geometry">
            <mxPoint x="460" y="600" as="sourcePoint" />
            <mxPoint x="440" y="590" as="targetPoint" />
          </mxGeometry>
        </mxCell>
        <mxCell id="ysF1GJHuXJe3zGCivZhf-78" value="Map" style="rounded=0;whiteSpace=wrap;html=1;fontSize=16;" parent="1" vertex="1">
          <mxGeometry x="650" y="420" width="90" height="100" as="geometry" />
        </mxCell>
        <mxCell id="ysF1GJHuXJe3zGCivZhf-80" value="" style="rhombus;whiteSpace=wrap;html=1;" parent="1" vertex="1">
          <mxGeometry x="570" y="450" width="40" height="40" as="geometry" />
        </mxCell>
        <mxCell id="ysF1GJHuXJe3zGCivZhf-81" value="" style="endArrow=none;html=1;rounded=0;entryX=0;entryY=0.5;entryDx=0;entryDy=0;" parent="1" source="ysF1GJHuXJe3zGCivZhf-1" target="ysF1GJHuXJe3zGCivZhf-80" edge="1">
          <mxGeometry width="50" height="50" relative="1" as="geometry">
            <mxPoint x="495" y="530" as="sourcePoint" />
            <mxPoint x="415" y="580" as="targetPoint" />
          </mxGeometry>
        </mxCell>
        <mxCell id="ysF1GJHuXJe3zGCivZhf-82" value="N" style="text;html=1;strokeColor=none;fillColor=none;align=center;verticalAlign=middle;whiteSpace=wrap;rounded=0;" parent="1" vertex="1">
          <mxGeometry x="550" y="450" width="20" height="20" as="geometry" />
        </mxCell>
        <mxCell id="ysF1GJHuXJe3zGCivZhf-83" value="1" style="text;html=1;strokeColor=none;fillColor=none;align=center;verticalAlign=middle;whiteSpace=wrap;rounded=0;" parent="1" vertex="1">
          <mxGeometry x="610" y="449" width="20" height="20" as="geometry" />
        </mxCell>
        <mxCell id="ysF1GJHuXJe3zGCivZhf-84" value="" style="endArrow=none;html=1;rounded=0;exitX=1;exitY=0.5;exitDx=0;exitDy=0;" parent="1" source="ysF1GJHuXJe3zGCivZhf-80" target="ysF1GJHuXJe3zGCivZhf-78" edge="1">
          <mxGeometry width="50" height="50" relative="1" as="geometry">
            <mxPoint x="540" y="480" as="sourcePoint" />
            <mxPoint x="580" y="480" as="targetPoint" />
          </mxGeometry>
        </mxCell>
        <mxCell id="ysF1GJHuXJe3zGCivZhf-86" value="Player_Event" style="rounded=0;whiteSpace=wrap;html=1;fontSize=16;" parent="1" vertex="1">
          <mxGeometry x="337" y="106" width="100" height="100" as="geometry" />
        </mxCell>
        <mxCell id="ysF1GJHuXJe3zGCivZhf-93" value="" style="endArrow=none;html=1;rounded=0;exitX=0.5;exitY=0;exitDx=0;exitDy=0;" parent="1" source="ysF1GJHuXJe3zGCivZhf-26" target="ysF1GJHuXJe3zGCivZhf-86" edge="1">
          <mxGeometry width="50" height="50" relative="1" as="geometry">
            <mxPoint x="347" y="296" as="sourcePoint" />
            <mxPoint x="297" y="206" as="targetPoint" />
          </mxGeometry>
        </mxCell>
        <mxCell id="ysF1GJHuXJe3zGCivZhf-94" value="" style="rhombus;whiteSpace=wrap;html=1;" parent="1" vertex="1">
          <mxGeometry x="237" y="330" width="40" height="40" as="geometry" />
        </mxCell>
        <mxCell id="ysF1GJHuXJe3zGCivZhf-95" value="" style="endArrow=none;html=1;rounded=0;entryX=0.5;entryY=1;entryDx=0;entryDy=0;" parent="1" target="ysF1GJHuXJe3zGCivZhf-94" edge="1">
          <mxGeometry width="50" height="50" relative="1" as="geometry">
            <mxPoint x="185" y="420" as="sourcePoint" />
            <mxPoint x="200" y="190" as="targetPoint" />
          </mxGeometry>
        </mxCell>
        <mxCell id="ysF1GJHuXJe3zGCivZhf-96" value="" style="endArrow=none;html=1;rounded=0;exitX=0.5;exitY=0;exitDx=0;exitDy=0;" parent="1" target="ysF1GJHuXJe3zGCivZhf-86" edge="1">
          <mxGeometry width="50" height="50" relative="1" as="geometry">
            <mxPoint x="257" y="330" as="sourcePoint" />
            <mxPoint x="332.5" y="300" as="targetPoint" />
          </mxGeometry>
        </mxCell>
        <mxCell id="ysF1GJHuXJe3zGCivZhf-97" value="" style="rhombus;whiteSpace=wrap;html=1;" parent="1" vertex="1">
          <mxGeometry x="571" y="246" width="40" height="40" as="geometry" />
        </mxCell>
        <mxCell id="ysF1GJHuXJe3zGCivZhf-98" value="" style="endArrow=none;html=1;rounded=0;exitX=0.5;exitY=0;exitDx=0;exitDy=0;" parent="1" source="ysF1GJHuXJe3zGCivZhf-97" target="ysF1GJHuXJe3zGCivZhf-86" edge="1">
          <mxGeometry width="50" height="50" relative="1" as="geometry">
            <mxPoint x="577" y="256" as="sourcePoint" />
            <mxPoint x="467" y="206" as="targetPoint" />
          </mxGeometry>
        </mxCell>
        <mxCell id="ysF1GJHuXJe3zGCivZhf-99" value="" style="endArrow=none;html=1;rounded=0;exitX=0.5;exitY=0;exitDx=0;exitDy=0;entryX=0.5;entryY=1;entryDx=0;entryDy=0;" parent="1" source="ysF1GJHuXJe3zGCivZhf-1" target="ysF1GJHuXJe3zGCivZhf-97" edge="1">
          <mxGeometry width="50" height="50" relative="1" as="geometry">
            <mxPoint x="468" y="340" as="sourcePoint" />
            <mxPoint x="468" y="310" as="targetPoint" />
          </mxGeometry>
        </mxCell>
        <mxCell id="ysF1GJHuXJe3zGCivZhf-103" value="name" style="ellipse;whiteSpace=wrap;html=1;fontStyle=4" parent="1" vertex="1">
          <mxGeometry x="680" y="380" width="50" height="30" as="geometry" />
        </mxCell>
        <mxCell id="ysF1GJHuXJe3zGCivZhf-104" value="" style="endArrow=none;html=1;rounded=0;" parent="1" source="ysF1GJHuXJe3zGCivZhf-78" target="ysF1GJHuXJe3zGCivZhf-103" edge="1">
          <mxGeometry width="50" height="50" relative="1" as="geometry">
            <mxPoint x="495" y="430" as="sourcePoint" />
            <mxPoint x="615" y="190" as="targetPoint" />
          </mxGeometry>
        </mxCell>
        <mxCell id="ysF1GJHuXJe3zGCivZhf-105" value="imgUrl" style="ellipse;whiteSpace=wrap;html=1;" parent="1" vertex="1">
          <mxGeometry x="750" y="440" width="50" height="30" as="geometry" />
        </mxCell>
        <mxCell id="ysF1GJHuXJe3zGCivZhf-106" value="" style="endArrow=none;html=1;rounded=0;" parent="1" source="ysF1GJHuXJe3zGCivZhf-78" target="ysF1GJHuXJe3zGCivZhf-105" edge="1">
          <mxGeometry width="50" height="50" relative="1" as="geometry">
            <mxPoint x="712" y="430" as="sourcePoint" />
            <mxPoint x="713" y="420" as="targetPoint" />
          </mxGeometry>
        </mxCell>
        <mxCell id="ysF1GJHuXJe3zGCivZhf-107" value="1" style="text;html=1;strokeColor=none;fillColor=none;align=center;verticalAlign=middle;whiteSpace=wrap;rounded=0;" parent="1" vertex="1">
          <mxGeometry x="230" y="360" width="20" height="20" as="geometry" />
        </mxCell>
        <mxCell id="ysF1GJHuXJe3zGCivZhf-108" value="1" style="text;html=1;strokeColor=none;fillColor=none;align=center;verticalAlign=middle;whiteSpace=wrap;rounded=0;" parent="1" vertex="1">
          <mxGeometry x="197" y="285" width="20" height="20" as="geometry" />
        </mxCell>
        <mxCell id="ysF1GJHuXJe3zGCivZhf-109" value="N" style="text;html=1;strokeColor=none;fillColor=none;align=center;verticalAlign=middle;whiteSpace=wrap;rounded=0;" parent="1" vertex="1">
          <mxGeometry x="217" y="220" width="20" height="20" as="geometry" />
        </mxCell>
        <mxCell id="ysF1GJHuXJe3zGCivZhf-110" value="N" style="text;html=1;strokeColor=none;fillColor=none;align=center;verticalAlign=middle;whiteSpace=wrap;rounded=0;" parent="1" vertex="1">
          <mxGeometry x="579" y="220" width="20" height="20" as="geometry" />
        </mxCell>
        <mxCell id="ysF1GJHuXJe3zGCivZhf-111" value="1" style="text;html=1;strokeColor=none;fillColor=none;align=center;verticalAlign=middle;whiteSpace=wrap;rounded=0;" parent="1" vertex="1">
          <mxGeometry x="589" y="285" width="20" height="20" as="geometry" />
        </mxCell>
        <mxCell id="ysF1GJHuXJe3zGCivZhf-112" value="" style="endArrow=none;html=1;rounded=0;" parent="1" source="ysF1GJHuXJe3zGCivZhf-86" target="ysF1GJHuXJe3zGCivZhf-113" edge="1">
          <mxGeometry width="50" height="50" relative="1" as="geometry">
            <mxPoint x="337" y="173.5" as="sourcePoint" />
            <mxPoint x="542" y="328.5" as="targetPoint" />
          </mxGeometry>
        </mxCell>
        <mxCell id="ysF1GJHuXJe3zGCivZhf-113" value="match_time" style="ellipse;whiteSpace=wrap;html=1;" parent="1" vertex="1">
          <mxGeometry x="257" y="141" width="70" height="30" as="geometry" />
        </mxCell>
        <mxCell id="ysF1GJHuXJe3zGCivZhf-116" value="" style="endArrow=none;html=1;rounded=0;" parent="1" source="ysF1GJHuXJe3zGCivZhf-1" target="ysF1GJHuXJe3zGCivZhf-117" edge="1">
          <mxGeometry width="50" height="50" relative="1" as="geometry">
            <mxPoint x="424" y="410" as="sourcePoint" />
            <mxPoint x="304" y="543" as="targetPoint" />
          </mxGeometry>
        </mxCell>
        <mxCell id="ysF1GJHuXJe3zGCivZhf-117" value="daily_count" style="ellipse;whiteSpace=wrap;html=1;" parent="1" vertex="1">
          <mxGeometry x="421" y="380" width="71" height="30" as="geometry" />
        </mxCell>
        <mxCell id="ysF1GJHuXJe3zGCivZhf-118" value="" style="endArrow=none;html=1;rounded=0;" parent="1" source="ysF1GJHuXJe3zGCivZhf-1" target="ysF1GJHuXJe3zGCivZhf-119" edge="1">
          <mxGeometry width="50" height="50" relative="1" as="geometry">
            <mxPoint x="515" y="397" as="sourcePoint" />
            <mxPoint x="395" y="530" as="targetPoint" />
          </mxGeometry>
        </mxCell>
        <mxCell id="ysF1GJHuXJe3zGCivZhf-119" value="playlist" style="ellipse;whiteSpace=wrap;html=1;" parent="1" vertex="1">
          <mxGeometry x="529" y="370" width="50" height="30" as="geometry" />
        </mxCell>
        <mxCell id="ysF1GJHuXJe3zGCivZhf-120" value="" style="endArrow=none;html=1;rounded=0;" parent="1" source="ysF1GJHuXJe3zGCivZhf-1" target="ysF1GJHuXJe3zGCivZhf-121" edge="1">
          <mxGeometry width="50" height="50" relative="1" as="geometry">
            <mxPoint x="530" y="553.5" as="sourcePoint" />
            <mxPoint x="410" y="686.5" as="targetPoint" />
          </mxGeometry>
        </mxCell>
        <mxCell id="ysF1GJHuXJe3zGCivZhf-121" value="isOvertime" style="ellipse;whiteSpace=wrap;html=1;" parent="1" vertex="1">
          <mxGeometry x="537.5" y="505" width="72.5" height="30" as="geometry" />
        </mxCell>
        <mxCell id="ysF1GJHuXJe3zGCivZhf-122" value="MVP" style="rhombus;whiteSpace=wrap;html=1;" parent="1" vertex="1">
          <mxGeometry x="319" y="511.5" width="50" height="40" as="geometry" />
        </mxCell>
        <mxCell id="ysF1GJHuXJe3zGCivZhf-123" value="" style="endArrow=none;html=1;rounded=0;entryX=1;entryY=0.5;entryDx=0;entryDy=0;" parent="1" source="ysF1GJHuXJe3zGCivZhf-1" target="ysF1GJHuXJe3zGCivZhf-122" edge="1">
          <mxGeometry width="50" height="50" relative="1" as="geometry">
            <mxPoint x="440" y="483" as="sourcePoint" />
            <mxPoint x="405" y="485" as="targetPoint" />
          </mxGeometry>
        </mxCell>
        <mxCell id="ysF1GJHuXJe3zGCivZhf-124" value="" style="endArrow=none;html=1;rounded=0;entryX=0;entryY=0.5;entryDx=0;entryDy=0;" parent="1" source="ysF1GJHuXJe3zGCivZhf-2" target="ysF1GJHuXJe3zGCivZhf-122" edge="1">
          <mxGeometry width="50" height="50" relative="1" as="geometry">
            <mxPoint x="440" y="509" as="sourcePoint" />
            <mxPoint x="375" y="550" as="targetPoint" />
          </mxGeometry>
        </mxCell>
        <mxCell id="ysF1GJHuXJe3zGCivZhf-125" value="N" style="text;html=1;strokeColor=none;fillColor=none;align=center;verticalAlign=middle;whiteSpace=wrap;rounded=0;" parent="1" vertex="1">
          <mxGeometry x="359" y="504" width="20" height="20" as="geometry" />
        </mxCell>
        <mxCell id="ysF1GJHuXJe3zGCivZhf-126" value="1" style="text;html=1;strokeColor=none;fillColor=none;align=center;verticalAlign=middle;whiteSpace=wrap;rounded=0;" parent="1" vertex="1">
          <mxGeometry x="300" y="504" width="20" height="20" as="geometry" />
        </mxCell>
        <mxCell id="wf_nlunnL7pjzHg7V_IO-2" value="timer" style="ellipse;whiteSpace=wrap;html=1;" parent="1" vertex="1">
          <mxGeometry x="397.75" y="530" width="56" height="30" as="geometry" />
        </mxCell>
        <mxCell id="wf_nlunnL7pjzHg7V_IO-3" value="" style="endArrow=none;html=1;rounded=0;" parent="1" source="ysF1GJHuXJe3zGCivZhf-1" target="wf_nlunnL7pjzHg7V_IO-2" edge="1">
          <mxGeometry width="50" height="50" relative="1" as="geometry">
            <mxPoint x="540" y="512" as="sourcePoint" />
            <mxPoint x="564" y="528" as="targetPoint" />
          </mxGeometry>
        </mxCell>
        <mxCell id="69nb7RHd-wuNKyReKqXE-2" value="" style="endArrow=none;html=1;rounded=0;entryX=0;entryY=0.5;entryDx=0;entryDy=0;exitX=1;exitY=0.5;exitDx=0;exitDy=0;" parent="1" source="ysF1GJHuXJe3zGCivZhf-35" target="ysF1GJHuXJe3zGCivZhf-1" edge="1">
          <mxGeometry width="50" height="50" relative="1" as="geometry">
            <mxPoint x="300" y="430" as="sourcePoint" />
            <mxPoint x="305.75" y="415" as="targetPoint" />
          </mxGeometry>
        </mxCell>
        <mxCell id="69nb7RHd-wuNKyReKqXE-3" value="N" style="text;html=1;strokeColor=none;fillColor=none;align=center;verticalAlign=middle;whiteSpace=wrap;rounded=0;" parent="1" vertex="1">
          <mxGeometry x="300" y="449" width="20" height="20" as="geometry" />
        </mxCell>
      </root>
    </mxGraphModel>
  </diagram>
</mxfile>
